<?xml version="1.0" encoding="iso-8859-1"?>
<svg version="1.1" xmlns="http://www.w3.org/2000/svg" x="0px" y="0px" viewBox="0 0 56 56" style="enable-background:new 0 0 56 56;" xml:space="preserve">
<path style="fill:#E9E9E0;" d="M36.985,0H7.963C7.155,0,6.5,0.655,6.5,1.926V55c0,0.345,0.655,1,1.463,1h40.074
	c0.808,0,1.463-0.655,1.463-1V12.978c0-0.696-0.093-0.92-0.257-1.085L37.607,0.257C37.442,0.093,37.218,0,36.985,0z"/>
<polygon style="fill:#D9D7CA;" points="37.5,0.151 37.5,12 49.349,12 	"/>
<path style="fill:#F29C1F;" d="M48.037,56H7.963C7.155,56,6.5,55.345,6.5,54.537V39h43v15.537C49.5,55.345,48.845,56,48.037,56z"/>
<path style="fill:#F29C1F;" d="M15.5,24c-0.256,0-0.512-0.098-0.707-0.293c-0.391-0.391-0.391-1.023,0-1.414l6-6
	c0.391-0.391,1.023-0.391,1.414,0s0.391,1.023,0,1.414l-6,6C16.012,23.902,15.756,24,15.5,24z"/>
<path style="fill:#F29C1F;" d="M21.5,30c-0.256,0-0.512-0.098-0.707-0.293l-6-6c-0.391-0.391-0.391-1.023,0-1.414
	s1.023-0.391,1.414,0l6,6c0.391,0.391,0.391,1.023,0,1.414C22.012,29.902,21.756,30,21.5,30z"/>
<path style="fill:#F29C1F;" d="M33.5,30c-0.256,0-0.512-0.098-0.707-0.293c-0.391-0.391-0.391-1.023,0-1.414l6-6
	c0.391-0.391,1.023-0.391,1.414,0s0.391,1.023,0,1.414l-6,6C34.012,29.902,33.756,30,33.5,30z"/>
<path style="fill:#F29C1F;" d="M39.5,24c-0.256,0-0.512-0.098-0.707-0.293l-6-6c-0.391-0.391-0.391-1.023,0-1.414
	s1.023-0.391,1.414,0l6,6c0.391,0.391,0.391,1.023,0,1.414C40.012,23.902,39.756,24,39.5,24z"/>
<path style="fill:#F29C1F;" d="M24.5,32c-0.11,0-0.223-0.019-0.333-0.058c-0.521-0.184-0.794-0.755-0.61-1.276l6-17
	c0.185-0.521,0.753-0.795,1.276-0.61c0.521,0.184,0.794,0.755,0.61,1.276l-6,17C25.298,31.744,24.912,32,24.5,32z"/>
</svg>